<?xml version="1.0" standalone="no"?>
<!DOCTYPE svg PUBLIC "-//W3C//DTD SVG 20010904//EN"
 "http://www.w3.org/TR/2001/REC-SVG-20010904/DTD/svg10.dtd">
<svg version="1.0" xmlns="http://www.w3.org/2000/svg"
 width="1000.000000pt" height="836.000000pt" viewBox="0 0 1000.000000 836.000000"
 preserveAspectRatio="xMidYMid meet">

<g transform="translate(0.000000,836.000000) scale(0.100000,-0.100000)"
fill="#000000" stroke="none">
<path d="M0 4180 l0 -4180 5000 0 5000 0 0 4180 0 4180 -5000 0 -5000 0 0
-4180z m7635 2320 c277 -26 512 -76 632 -135 231 -114 307 -327 197 -553 -38
-79 -112 -160 -164 -182 -30 -12 -37 -11 -113 27 -221 109 -536 163 -958 163
-998 0 -1846 -363 -2765 -1183 -206 -183 -473 -453 -598 -602 -416 -498 -834
-1188 -1176 -1944 -119 -260 -104 -253 -539 -249 -254 3 -284 5 -295 20 -10
13 -14 137 -19 510 -11 850 -42 1157 -141 1403 -46 113 -93 195 -157 275 l-52
64 51 46 c191 171 442 217 640 116 161 -81 234 -301 273 -816 6 -80 11 -272
12 -427 1 -155 3 -281 3 -280 1 1 23 49 50 107 153 335 492 885 795 1290 1035
1382 2481 2283 3794 2364 86 5 412 -4 530 -14z"/>
</g>
</svg>
