<?xml version="1.0" standalone="no"?>
<!DOCTYPE svg PUBLIC "-//W3C//DTD SVG 20010904//EN"
 "http://www.w3.org/TR/2001/REC-SVG-20010904/DTD/svg10.dtd">
<svg version="1.0" xmlns="http://www.w3.org/2000/svg"
 width="701.000000pt" height="258.000000pt" viewBox="0 0 701.000000 258.000000"
 preserveAspectRatio="xMidYMid meet">

<g transform="translate(0.000000,258.000000) scale(0.100000,-0.100000)"
fill="#000000" stroke="none">
<path d="M0 1290 l0 -1290 3505 0 3505 0 0 1290 0 1290 -3505 0 -3505 0 0
-1290z m6529 1016 c133 -29 213 -78 226 -137 8 -36 -22 -104 -63 -142 l-30
-29 -65 21 c-177 54 -410 69 -574 36 -191 -39 -455 -159 -589 -268 -10 -8 -48
-39 -84 -68 -261 -210 -537 -571 -725 -948 -35 -70 -69 -132 -77 -138 -7 -6
-70 -13 -139 -15 l-126 -4 -7 251 c-9 342 -34 484 -98 552 -28 30 -19 46 46
78 45 22 66 27 105 23 127 -12 167 -105 173 -400 2 -80 6 -144 10 -142 4 3 30
48 59 102 115 214 301 461 490 651 331 333 675 526 1045 586 110 18 319 13
423 -9z m-5151 -436 c62 -38 62 -34 62 -625 0 -581 0 -580 -55 -623 -36 -29
-94 -29 -129 -1 -57 45 -56 30 -56 627 l0 549 23 34 c40 60 97 74 155 39z
m674 -424 c145 -31 254 -110 310 -224 l33 -66 3 -235 c2 -165 0 -243 -9 -263
-16 -39 -62 -62 -111 -55 -47 6 -67 21 -84 64 l-14 32 -51 -35 c-71 -47 -146
-68 -228 -61 -204 15 -366 173 -379 369 -6 93 10 170 54 257 41 83 103 142
188 182 104 49 179 58 288 35z m1728 4 c83 -14 196 -67 254 -120 27 -25 60
-70 79 -109 l32 -65 3 -226 c2 -146 0 -238 -8 -262 -20 -69 -111 -91 -169 -42
-17 14 -31 34 -31 43 0 31 -10 30 -61 -5 -196 -132 -470 -49 -576 175 -49 105
-41 266 20 391 49 99 180 196 298 219 62 12 85 12 159 1z m1760 -26 c116 -55
203 -159 234 -279 22 -81 20 -137 -3 -166 l-19 -24 -291 -3 c-160 -2 -291 -6
-291 -9 0 -4 9 -25 20 -47 57 -117 228 -143 358 -55 76 50 120 53 164 9 26
-27 30 -36 25 -68 -8 -46 -55 -89 -155 -139 -65 -32 -82 -37 -172 -41 -113 -5
-165 5 -252 51 -281 146 -303 548 -40 729 85 59 154 78 262 75 82 -2 104 -7
160 -33z m910 10 c122 -41 230 -142 267 -249 15 -42 18 -86 18 -280 0 -203 -2
-233 -18 -256 -20 -30 -79 -50 -120 -42 -32 6 -77 56 -77 84 0 19 -2 19 -33
-5 -92 -71 -208 -97 -308 -71 -229 58 -354 242 -319 467 27 176 134 305 298
359 72 24 211 21 292 -7z m-6029 -13 c16 -16 29 -37 29 -45 0 -23 12 -20 68
18 65 43 135 60 226 53 91 -6 153 -33 223 -99 83 -79 125 -173 131 -296 4 -77
1 -104 -18 -163 -84 -260 -360 -365 -576 -219 l-44 29 0 -215 c0 -243 -6 -270
-65 -298 -41 -20 -68 -20 -105 -1 -61 32 -60 20 -60 636 l0 561 34 34 c29 29
41 34 81 34 38 0 52 -5 76 -29z m2782 1 c33 -31 40 -64 24 -104 -8 -18 -101
-140 -206 -271 -106 -131 -191 -240 -189 -242 2 -2 72 -5 156 -6 84 0 168 -5
187 -10 83 -23 90 -131 10 -165 -42 -17 -557 -20 -617 -4 -79 22 -92 99 -29
177 22 26 114 140 205 253 l166 205 -184 5 c-178 5 -185 6 -210 29 -28 26 -35
76 -16 111 25 47 45 50 372 47 306 -2 306 -2 331 -25z"/>
<path d="M1880 1234 c-48 -21 -68 -41 -96 -96 -75 -148 23 -328 179 -328 216
0 286 304 96 419 -41 25 -127 28 -179 5z"/>
<path d="M3614 1225 c-69 -41 -105 -109 -105 -198 -1 -120 88 -217 197 -217
67 0 109 17 151 61 104 109 72 300 -61 363 -52 25 -133 21 -182 -9z"/>
<path d="M5301 1254 c-51 -15 -97 -55 -117 -103 -8 -18 -14 -35 -14 -37 0 -2
88 -4 195 -4 107 0 195 2 195 5 0 11 -33 70 -49 89 -44 50 -137 72 -210 50z"/>
<path d="M6235 1248 c-81 -29 -134 -102 -142 -198 -5 -51 -2 -67 22 -115 103
-212 390 -132 387 107 -2 147 -138 252 -267 206z"/>
<path d="M578 1230 c-131 -70 -150 -276 -35 -377 133 -117 327 -14 327 173 0
97 -38 167 -111 204 -50 26 -131 26 -181 0z"/>
</g>
</svg>
